<?xml version="1.0" encoding="utf-8" ?>
<svg baseProfile="tiny" height="193" version="1.2" viewBox="0,0,189,193" width="189" xmlns="http://www.w3.org/2000/svg" xmlns:ev="http://www.w3.org/2001/xml-events" xmlns:xlink="http://www.w3.org/1999/xlink"><defs /><path d="M 85,135 L 83,137 L 82,137 L 81,138 L 80,138 L 79,139 L 78,139 L 77,140 L 76,140 L 74,142 L 73,142 L 70,145 L 70,146 L 69,147 L 69,149 L 68,150 L 68,153 L 67,154 L 67,167 L 68,168 L 68,171 L 69,172 L 69,173 L 71,175 L 71,176 L 76,181 L 77,181 L 78,182 L 80,182 L 81,183 L 87,183 L 88,182 L 95,182 L 96,181 L 99,181 L 100,180 L 101,180 L 102,179 L 103,179 L 104,178 L 105,178 L 108,175 L 108,174 L 106,172 L 105,172 L 96,163 L 96,162 L 94,160 L 94,159 L 92,157 L 92,156 L 90,154 L 90,153 L 89,152 L 89,150 L 88,149 L 88,146 L 87,145 L 87,141 L 86,140 L 86,135 Z M 96,123 L 95,124 L 95,125 L 94,126 L 94,127 L 93,128 L 93,139 L 94,140 L 94,143 L 95,144 L 95,146 L 96,147 L 96,148 L 97,149 L 97,150 L 98,151 L 98,152 L 99,153 L 99,154 L 102,157 L 102,158 L 106,162 L 107,162 L 110,165 L 111,165 L 113,167 L 114,167 L 115,168 L 116,168 L 117,169 L 118,169 L 119,170 L 120,170 L 121,171 L 123,171 L 124,172 L 126,172 L 127,173 L 133,173 L 134,172 L 135,172 L 138,169 L 139,169 L 143,165 L 144,165 L 145,164 L 145,163 L 150,158 L 150,157 L 153,154 L 153,153 L 154,152 L 154,151 L 155,150 L 155,148 L 156,147 L 156,146 L 157,145 L 157,144 L 158,143 L 158,141 L 159,140 L 159,139 L 157,139 L 156,140 L 153,140 L 152,141 L 138,141 L 137,140 L 133,140 L 132,139 L 128,139 L 127,138 L 123,138 L 122,137 L 120,137 L 119,136 L 118,136 L 117,135 L 116,135 L 115,134 L 114,134 L 113,133 L 112,133 L 111,132 L 110,132 L 109,131 L 108,131 L 106,129 L 105,129 L 103,127 L 102,127 L 98,123 Z M 171,82 L 167,86 L 166,86 L 160,92 L 159,92 L 157,94 L 156,94 L 153,97 L 152,97 L 151,98 L 150,98 L 149,99 L 148,99 L 147,100 L 146,100 L 145,101 L 144,101 L 143,102 L 142,102 L 141,103 L 138,103 L 137,104 L 135,104 L 134,105 L 132,105 L 131,106 L 128,106 L 127,107 L 124,107 L 123,108 L 120,108 L 119,109 L 112,109 L 111,110 L 96,110 L 96,117 L 98,119 L 100,119 L 102,121 L 104,121 L 105,122 L 106,122 L 107,123 L 108,123 L 109,124 L 111,124 L 112,125 L 113,125 L 114,126 L 115,126 L 116,127 L 118,127 L 119,128 L 120,128 L 121,129 L 123,129 L 124,130 L 127,130 L 128,131 L 131,131 L 132,132 L 136,132 L 137,133 L 155,133 L 156,132 L 159,132 L 160,131 L 161,131 L 162,130 L 164,130 L 165,129 L 166,129 L 167,128 L 168,128 L 170,126 L 171,126 L 172,125 L 172,124 L 173,123 L 173,120 L 174,119 L 174,115 L 175,114 L 175,106 L 176,105 L 175,104 L 175,95 L 174,94 L 174,89 L 173,88 L 173,84 L 172,83 L 172,82 Z M 65,70 L 64,71 L 63,71 L 60,74 L 63,74 L 65,72 Z M 78,65 L 65,78 L 65,79 L 64,80 L 63,80 L 61,78 L 59,78 L 58,79 L 56,79 L 51,84 L 50,84 L 38,96 L 38,97 L 39,97 L 40,96 L 44,96 L 45,95 L 46,95 L 47,94 L 48,94 L 52,90 L 53,90 L 58,85 L 59,85 L 60,84 L 62,84 L 63,83 L 74,83 L 75,82 L 77,82 L 79,80 L 79,79 L 81,77 L 81,75 L 82,74 L 82,69 L 81,68 L 81,67 L 79,65 Z M 21,47 L 20,48 L 20,49 L 19,50 L 19,52 L 18,53 L 18,55 L 17,56 L 17,58 L 16,59 L 16,61 L 15,62 L 15,64 L 14,65 L 14,67 L 13,68 L 13,72 L 12,73 L 12,77 L 11,78 L 11,85 L 10,86 L 10,112 L 11,113 L 11,119 L 12,120 L 12,124 L 13,125 L 13,127 L 14,128 L 14,130 L 15,131 L 15,132 L 16,133 L 16,135 L 17,136 L 17,137 L 19,139 L 19,140 L 20,141 L 20,142 L 21,143 L 21,144 L 23,146 L 23,147 L 25,149 L 25,150 L 29,154 L 29,155 L 39,165 L 40,165 L 44,169 L 45,169 L 48,172 L 49,172 L 50,173 L 51,173 L 52,174 L 53,174 L 54,175 L 55,175 L 56,176 L 57,176 L 58,177 L 59,177 L 59,175 L 58,174 L 58,168 L 57,167 L 57,166 L 58,165 L 58,157 L 59,156 L 59,154 L 60,153 L 59,152 L 57,152 L 56,151 L 54,151 L 53,150 L 52,150 L 51,149 L 50,149 L 49,148 L 48,148 L 44,144 L 43,144 L 38,139 L 37,139 L 32,134 L 32,133 L 30,131 L 30,130 L 29,129 L 29,128 L 28,127 L 28,125 L 27,124 L 27,123 L 26,122 L 26,121 L 25,120 L 25,119 L 24,118 L 24,117 L 23,116 L 23,114 L 22,113 L 22,110 L 21,109 L 21,105 L 20,104 L 20,101 L 19,100 L 19,90 L 18,89 L 18,69 L 19,68 L 19,57 L 20,56 L 20,50 L 21,49 Z M 67,44 L 66,45 L 65,45 L 61,49 L 60,49 L 56,53 L 56,54 L 50,60 L 50,61 L 48,63 L 48,64 L 47,65 L 47,66 L 43,70 L 43,71 L 41,73 L 41,74 L 40,75 L 40,76 L 39,77 L 39,78 L 37,80 L 37,81 L 30,88 L 30,89 L 29,90 L 29,91 L 28,92 L 28,93 L 27,94 L 27,95 L 26,96 L 26,97 L 27,98 L 31,98 L 32,97 L 33,97 L 55,75 L 55,74 L 60,69 L 61,69 L 63,67 L 67,67 L 68,66 L 71,66 L 72,65 L 73,65 L 75,63 L 75,62 L 78,59 L 78,58 L 79,57 L 79,56 L 80,55 L 80,53 L 81,52 L 81,49 L 78,46 L 77,46 L 76,45 L 74,45 L 73,44 Z M 137,32 L 137,37 L 136,38 L 136,44 L 135,45 L 135,48 L 134,49 L 134,52 L 133,53 L 133,55 L 132,56 L 132,58 L 131,59 L 131,60 L 130,61 L 130,62 L 129,63 L 129,64 L 128,65 L 128,66 L 126,68 L 126,69 L 124,71 L 124,72 L 122,74 L 122,75 L 120,77 L 120,78 L 118,80 L 118,81 L 114,85 L 113,85 L 107,91 L 106,91 L 104,93 L 103,93 L 99,97 L 98,97 L 97,98 L 96,98 L 94,100 L 93,100 L 92,101 L 91,101 L 90,102 L 90,103 L 92,105 L 99,105 L 100,104 L 104,104 L 105,103 L 110,103 L 111,102 L 117,102 L 118,101 L 121,101 L 122,100 L 124,100 L 125,99 L 128,99 L 129,98 L 131,98 L 132,97 L 134,97 L 135,96 L 136,96 L 137,95 L 138,95 L 139,94 L 141,94 L 142,93 L 143,93 L 144,92 L 145,92 L 146,91 L 147,91 L 148,90 L 149,90 L 151,88 L 152,88 L 154,86 L 155,86 L 158,83 L 159,83 L 165,77 L 165,76 L 168,73 L 168,72 L 169,71 L 169,70 L 170,69 L 170,68 L 172,66 L 172,63 L 173,62 L 173,56 L 172,55 L 172,54 L 169,51 L 169,50 L 168,50 L 163,45 L 162,45 L 159,42 L 158,42 L 155,39 L 154,39 L 153,38 L 152,38 L 150,36 L 148,36 L 147,35 L 146,35 L 145,34 L 144,34 L 143,33 L 141,33 L 140,32 Z M 65,20 L 65,22 L 64,23 L 64,38 L 65,39 L 65,41 L 68,41 L 69,40 L 70,40 L 71,39 L 71,29 L 72,28 L 72,26 L 70,24 L 70,23 L 68,21 L 67,21 L 66,20 Z M 80,16 L 79,17 L 79,18 L 78,19 L 78,20 L 76,22 L 76,24 L 75,25 L 75,26 L 74,27 L 74,39 L 75,40 L 76,40 L 80,44 L 80,45 L 81,46 L 82,46 L 83,45 L 83,44 L 86,41 L 86,39 L 87,38 L 87,29 L 86,28 L 86,26 L 85,25 L 85,23 L 83,21 L 83,19 L 82,18 L 82,17 L 81,16 Z M 109,11 L 108,12 L 104,12 L 103,13 L 101,13 L 100,14 L 97,14 L 96,15 L 95,15 L 94,16 L 93,16 L 92,17 L 91,17 L 88,20 L 88,21 L 89,22 L 89,23 L 90,24 L 90,25 L 91,26 L 91,27 L 92,28 L 92,29 L 93,30 L 93,31 L 94,32 L 94,35 L 95,36 L 95,40 L 96,41 L 96,52 L 95,53 L 95,57 L 94,58 L 94,61 L 93,62 L 93,65 L 92,66 L 92,67 L 91,68 L 91,70 L 90,71 L 90,73 L 89,74 L 89,76 L 88,77 L 88,78 L 87,79 L 87,80 L 86,81 L 86,82 L 85,83 L 85,84 L 84,85 L 84,86 L 83,87 L 83,88 L 82,89 L 82,90 L 80,92 L 80,93 L 79,94 L 79,95 L 81,97 L 82,97 L 84,99 L 85,99 L 87,97 L 88,97 L 93,92 L 94,92 L 110,76 L 110,75 L 115,70 L 115,69 L 118,66 L 118,65 L 119,64 L 119,63 L 120,62 L 120,61 L 121,60 L 121,59 L 122,58 L 122,57 L 123,56 L 123,55 L 124,54 L 124,53 L 125,52 L 125,51 L 126,50 L 126,49 L 127,48 L 127,46 L 128,45 L 128,43 L 129,42 L 129,38 L 130,37 L 130,21 L 129,20 L 129,17 L 128,16 L 128,14 L 127,13 L 127,12 L 125,12 L 124,11 Z " fill="currentColor" /></svg>