<?xml version="1.0" encoding="utf-8" ?>
<svg baseProfile="tiny" height="79" version="1.2" viewBox="0,0,449,79" width="449" xmlns="http://www.w3.org/2000/svg" xmlns:ev="http://www.w3.org/2001/xml-events" xmlns:xlink="http://www.w3.org/1999/xlink"><defs /><path d="M 35,55 L 33,57 L 32,57 L 31,58 L 30,58 L 28,60 L 28,62 L 27,63 L 27,69 L 28,70 L 28,72 L 31,75 L 32,75 L 33,76 L 36,76 L 37,75 L 41,75 L 42,74 L 43,74 L 45,72 L 44,71 L 43,71 L 38,66 L 38,65 L 37,64 L 37,63 L 36,62 L 36,60 L 35,59 Z M 71,33 L 67,37 L 66,37 L 64,39 L 63,39 L 62,40 L 61,40 L 60,41 L 59,41 L 58,42 L 56,42 L 55,43 L 53,43 L 52,44 L 48,44 L 47,45 L 40,45 L 40,48 L 41,49 L 38,52 L 38,57 L 39,58 L 39,60 L 40,61 L 40,62 L 41,63 L 41,64 L 45,68 L 46,68 L 48,70 L 50,70 L 51,71 L 53,71 L 54,72 L 55,71 L 56,71 L 57,70 L 58,70 L 62,66 L 62,65 L 64,63 L 64,62 L 65,61 L 65,60 L 66,59 L 66,57 L 65,58 L 55,58 L 54,57 L 52,57 L 51,56 L 49,56 L 48,55 L 47,55 L 46,54 L 45,54 L 44,53 L 43,53 L 40,50 L 41,49 L 42,49 L 43,50 L 44,50 L 45,51 L 47,51 L 48,52 L 50,52 L 51,53 L 53,53 L 54,54 L 66,54 L 67,53 L 69,53 L 70,52 L 71,52 L 72,51 L 72,50 L 73,49 L 73,44 L 74,43 L 74,42 L 73,41 L 73,35 L 72,34 L 72,33 Z M 376,19 L 376,59 L 404,59 L 405,58 L 405,50 L 404,49 L 387,49 L 386,48 L 386,19 Z M 341,19 L 341,59 L 370,59 L 370,49 L 353,49 L 352,48 L 352,19 Z M 322,19 L 322,59 L 332,59 L 332,19 Z M 281,19 L 281,59 L 300,59 L 301,58 L 304,58 L 305,57 L 306,57 L 307,56 L 308,56 L 311,53 L 311,52 L 312,51 L 312,50 L 313,49 L 313,46 L 314,45 L 314,32 L 313,31 L 313,29 L 312,28 L 312,26 L 307,21 L 306,21 L 305,20 L 304,20 L 303,19 Z M 250,19 L 250,20 L 249,21 L 249,23 L 248,24 L 248,27 L 247,28 L 247,30 L 246,31 L 246,33 L 245,34 L 245,36 L 244,37 L 244,39 L 243,40 L 243,43 L 242,44 L 242,46 L 241,47 L 241,49 L 240,50 L 240,52 L 239,53 L 239,55 L 238,56 L 238,59 L 248,59 L 249,58 L 249,55 L 251,53 L 262,53 L 263,54 L 263,55 L 264,56 L 264,58 L 265,59 L 276,59 L 276,58 L 275,57 L 275,55 L 274,54 L 274,52 L 273,51 L 273,49 L 272,48 L 272,46 L 271,45 L 271,43 L 270,42 L 270,39 L 269,38 L 269,36 L 268,35 L 268,33 L 267,32 L 267,30 L 266,29 L 266,27 L 265,26 L 265,24 L 264,23 L 264,20 L 263,19 Z M 191,19 L 191,58 L 192,59 L 201,59 L 201,39 L 202,38 L 203,39 L 203,42 L 204,43 L 204,46 L 205,47 L 205,50 L 206,51 L 206,54 L 207,55 L 207,58 L 208,59 L 216,59 L 216,57 L 217,56 L 217,52 L 218,51 L 218,48 L 219,47 L 219,44 L 220,43 L 220,40 L 222,38 L 223,39 L 223,42 L 222,43 L 222,58 L 223,59 L 233,59 L 233,19 L 218,19 L 218,21 L 217,22 L 217,25 L 216,26 L 216,30 L 215,31 L 215,34 L 214,35 L 214,38 L 212,40 L 211,39 L 211,36 L 210,35 L 210,31 L 209,30 L 209,27 L 208,26 L 208,23 L 207,22 L 207,19 Z M 152,19 L 152,59 L 162,59 L 162,45 L 163,44 L 167,44 L 168,45 L 168,46 L 169,47 L 169,49 L 170,50 L 170,51 L 171,52 L 171,54 L 172,55 L 172,56 L 173,57 L 173,58 L 174,59 L 185,59 L 185,57 L 184,56 L 184,55 L 183,54 L 183,52 L 182,51 L 182,50 L 181,49 L 181,48 L 180,47 L 180,46 L 179,45 L 179,44 L 178,43 L 178,42 L 179,41 L 180,41 L 183,38 L 183,37 L 184,36 L 184,34 L 185,33 L 185,28 L 184,27 L 184,25 L 183,24 L 183,23 L 180,20 L 179,20 L 178,19 Z M 121,19 L 121,20 L 120,21 L 120,23 L 119,24 L 119,26 L 118,27 L 118,29 L 117,30 L 117,32 L 116,33 L 116,36 L 115,37 L 115,39 L 114,40 L 114,42 L 113,43 L 113,45 L 112,46 L 112,48 L 111,49 L 111,52 L 110,53 L 110,55 L 109,56 L 109,59 L 119,59 L 120,58 L 120,55 L 122,53 L 133,53 L 134,54 L 134,55 L 135,56 L 135,59 L 146,59 L 146,56 L 145,55 L 145,53 L 144,52 L 144,50 L 143,49 L 143,46 L 142,45 L 142,43 L 141,42 L 141,40 L 140,39 L 140,37 L 139,36 L 139,34 L 138,33 L 138,30 L 137,29 L 137,27 L 136,26 L 136,24 L 135,23 L 135,21 L 134,20 L 134,19 Z M 421,18 L 420,19 L 418,19 L 417,20 L 416,20 L 415,21 L 414,21 L 412,23 L 412,24 L 410,26 L 410,27 L 409,28 L 409,31 L 408,32 L 408,46 L 409,47 L 409,49 L 410,50 L 410,51 L 411,52 L 411,53 L 415,57 L 416,57 L 417,58 L 419,58 L 420,59 L 424,59 L 425,60 L 428,60 L 429,59 L 434,59 L 435,58 L 436,58 L 437,57 L 438,57 L 442,53 L 442,52 L 443,51 L 443,50 L 444,49 L 444,47 L 445,46 L 445,31 L 444,30 L 444,28 L 443,27 L 443,26 L 441,24 L 441,23 L 440,22 L 439,22 L 437,20 L 436,20 L 435,19 L 433,19 L 432,18 Z M 7,18 L 7,19 L 6,20 L 6,21 L 5,22 L 5,25 L 4,26 L 4,29 L 3,30 L 3,36 L 2,37 L 2,43 L 3,44 L 3,50 L 4,51 L 4,53 L 5,54 L 5,55 L 6,56 L 6,57 L 7,58 L 7,59 L 8,60 L 8,61 L 17,70 L 18,70 L 20,72 L 21,72 L 22,73 L 23,73 L 23,63 L 22,62 L 20,62 L 18,60 L 17,60 L 11,54 L 11,53 L 10,52 L 10,51 L 9,50 L 9,49 L 8,48 L 8,46 L 7,45 L 7,41 L 6,40 L 6,22 L 7,21 Z M 57,11 L 57,15 L 56,16 L 56,19 L 55,20 L 55,22 L 54,23 L 54,24 L 53,25 L 53,26 L 52,27 L 52,28 L 49,31 L 49,32 L 45,36 L 44,36 L 41,39 L 40,39 L 38,41 L 37,41 L 37,42 L 38,43 L 39,42 L 45,42 L 46,41 L 49,41 L 50,40 L 53,40 L 54,39 L 56,39 L 57,38 L 58,38 L 59,37 L 60,37 L 61,36 L 62,36 L 63,35 L 64,35 L 70,29 L 70,28 L 71,27 L 71,26 L 72,25 L 72,21 L 66,15 L 65,15 L 63,13 L 61,13 L 60,12 L 59,12 L 58,11 Z M 95,7 L 95,72 L 98,72 L 98,7 Z M 45,2 L 44,3 L 41,3 L 40,4 L 39,4 L 38,5 L 37,5 L 36,6 L 36,7 L 35,8 L 34,7 L 34,6 L 33,5 L 31,7 L 31,8 L 30,9 L 27,6 L 26,6 L 26,15 L 27,16 L 18,25 L 18,26 L 16,28 L 16,29 L 15,30 L 15,31 L 12,34 L 12,35 L 10,37 L 10,38 L 9,39 L 12,39 L 14,37 L 15,38 L 18,38 L 19,37 L 20,37 L 24,33 L 29,33 L 30,32 L 31,32 L 33,30 L 33,26 L 32,25 L 25,32 L 24,31 L 23,31 L 22,32 L 21,32 L 20,31 L 23,28 L 24,29 L 25,29 L 26,28 L 25,28 L 24,27 L 25,26 L 28,26 L 32,22 L 32,20 L 33,19 L 32,18 L 35,15 L 35,14 L 36,13 L 36,11 L 35,10 L 35,8 L 36,7 L 38,9 L 38,11 L 39,12 L 39,23 L 38,24 L 38,26 L 37,27 L 37,29 L 36,30 L 36,31 L 35,32 L 35,33 L 34,34 L 34,35 L 33,36 L 33,37 L 32,38 L 33,39 L 36,39 L 48,27 L 48,26 L 50,24 L 50,23 L 51,22 L 51,21 L 52,20 L 52,18 L 53,17 L 53,15 L 54,14 L 54,6 L 53,5 L 53,3 L 52,2 Z " fill="currentColor" /></svg>